<?xml version="1.0"?><svg version="1.2" baseProfile="tiny-ps" viewBox="0 0 300 300" xmlns="http://www.w3.org/2000/svg" xmlns:xlink="http://www.w3.org/1999/xlink"><title>CryptoNodeID</title><g><g fill="#ecedf0" transform="matrix(.1 0 0 -.1 0 300)"><path d="M0 1500V0h3000v3000H0V1500z"/></g><g fill="#61fcff" transform="matrix(.1 0 0 -.1 0 300)"><path d="M0 1500V0h3000v3000H0V1500zM630 300v-20h-10c-5 0-10 5-10 10v10h-80V187l50 5 51 5-3-16-3-16-48-3-49-3-14 12-14 11v53c0 30 3 60 6 69l6 16h118v-20zm162-5 11-24-17-26-17-25 11-19c12-24 13-41 2-41-5 0-16 16-25 36l-17 35-23-3-22-3-3-32-3-33h-19v160h110l12-25zm77-12 23-36 21 36 21 37h26l-30-49-30-48v-63h-20v63l-30 48-30 49h13c6 0 23-17 36-37zm239-1 3-33-12-15-11-14h-78v-60h-20v161l58-3 57-3 3-33zm152 29v-10l-27-3-28-3-3-68-3-68-9 6-10 6v129h-50v20h130v-9zm158-65 3-69-13-8c-7-5-33-9-58-9h-46l-12 12-12 12v52c0 29 3 60 6 69l6 16 62-3 61-3 3-69zm176 19c22-30 43-55 48-55h8v110h20V171l-10-6-9-6-48 62-48 61-3-61-3-61h-19v160h25l39-55zm244-22-3-78-39-3c-22-2-50-1-63 2l-23 6v69c0 37 3 71 7 74 3 4 33 7 65 7h59l-3-77zm166 61 16-15v-97l-15-12-16-13-49-5-50-5v163h99l15-16zm166 6v-10h-90v-50h80v-20h-80v-40h90v-30h-110v160h110v-10zm128-67-3-78h-20l-3 78-3 77h32l-3-77zm153 67 19-11V191l-22-15-22-16h-86v160h91l20-10zM690 275v-25h80v50h-80v-25zm320-6v-30l38 3 37 3 3 28 3 27h-81v-31zm300-24v-55h90v110h-90v-55zm420 0v-55h90v110h-90v-55zm180-1v-55l43 3 42 3 3 38 3 38-12 15-11 14h-68v-56zm450 1v-56l43 3 42 3v100l-42 3-43 3v-56z"/></g><g fill="#35cafe" transform="matrix(.1 0 0 -.1 0 300)"><path d="M0 1500V0h3000v3000H0V1500zm1563 1326c41-17 76-55 86-92l7-29 344-207c189-115 347-208 351-208s20 7 35 15l29 15h80l35-18 34-17 20-34 19-33 1-43 1-44-21-28-20-28-47-23-46-24-40 7-40 7-27 20c-14 12-35 35-45 51l-18 31-18 1c-18 1-602 349-643 383l-21 17 21 40 20 39-1 26-1 25-11-27c-16-35-46-67-79-84l-27-14h-76l-38 23c-21 13-47 36-57 53l-20 29v-20c0-11 9-35 21-54l20-34-8-7c-7-7-453-279-588-358-33-20-67-35-77-35l-16 2-13-31-12-30-39-26-40-26h-94l-35 21-34 22-17 29-18 30v77l20 33 20 32 32 20 33 20h84l35-16 34-17 34 20c18 11 172 104 342 207l310 187 16 37c40 87 122 123 203 88zm-395-23-3-18h-30l-3 18-3 17h42l-3-17zm730-2c15-10 115-71 222-135 107-65 199-122 204-127l10-9-11-11-12-12-13 6c-7 4-112 67-233 140l-220 135-3 16-3 16h16c9 0 29-8 43-19zm-180-822c108-67 207-132 220-146l22-24v-266l-21-27-22-28-8 14-9 13 15 11 16 12-3 137-3 138-208 128c-114 71-213 129-220 129s-29-11-49-25c-39-27-58-31-58-15 0 14 90 70 112 70h19l197-121zm-1052 20 34-21v-298c0-164 3-305 6-313l6-15-23-23-22-22 17-27 16-28v-104l-38-38-38-38-38-7-38-8-38 12-38 11-31 32-31 32-6 33-6 33 7 27c3 15 15 39 25 53l19 26 40 19 41 18v647h28c15 0 34 5 42 10 21 14 28 13 66-11zm901-179 43-19 20-33 20-33v-97l-38-38-38-38-37-7-37-7-35 6-35 7-35 34-34 35-7 34-6 35 11 34 11 34 28 26c52 50 102 58 169 27zm-310-136 6-15-11-11-11-11-15 12-15 12 6 15c7 19 32 18 40-2zm528-9v-20l-16-3-16-3-7 16c-8 22 2 37 22 33l17-3v-20zm377-226c27-14 65-49 54-49-5 0-26 10-47 22l-39 22 2 50 1 51 4-42 4-43 21-11zm-884-260 202-123v-88c0-48-3-88-6-88s-115 66-247 147c-133 80-268 162-299 181-32 19-58 38-58 43 0 4 32 26 72 48l72 40 31-18c16-10 121-74 233-142zm824 92c16-9 28-18 28-21-1-3-31-24-68-46-37-23-167-103-289-178s-229-139-237-142l-16-6v177l232 143 231 142 46-27c25-15 58-34 73-42zm424 48 43-20 22-45 21-45-6-31c-3-17-18-47-32-66l-27-34-33-14c-80-33-160 0-204 84l-12 23 7 40 7 40 26 31c30 35 74 57 116 58h30l42-21zM923 704c122-75 229-142 237-150l14-14-11-11-11-11-234 142c-128 79-237 146-242 150l-8 8 6 11c4 6 11 11 17 11 5 0 109-61 232-136zm1407 122v-14l-90-56c-49-31-132-81-182-112-51-31-117-72-146-91l-53-34-9 6c-6 4-10 12-10 18v12l187 115c102 63 205 127 227 142 23 14 49 27 59 27l17 1v-14zm-750-21 28-15 21-33 20-33 2-35 3-36-13-31-13-31-36-24c-21-14-52-27-70-31l-33-6-39 16-40 16-25 30c-14 16-28 40-31 54l-6 24 7 37 7 37 38 38 38 38h113l29-15zM630 300v-20h-10c-5 0-10 5-10 10v10h-80V187l50 5 51 5-3-16-3-16-48-3-49-3-14 12-14 11v53c0 30 3 60 6 69l6 16h118v-20zm162-5 11-24-17-26-17-25 11-19c12-24 13-41 2-41-5 0-16 16-25 36l-17 35-23-3-22-3-3-32-3-33h-19v160h110l12-25zm77-12 23-36 21 36 21 37h26l-30-49-30-48v-63h-20v63l-30 48-30 49h13c6 0 23-17 36-37zm239-1 3-33-12-15-11-14h-78v-60h-20v161l58-3 57-3 3-33zm152 29v-10l-27-3-28-3-3-68-3-68-9 6-10 6v129h-50v20h130v-9zm158-65 3-69-13-8c-7-5-33-9-58-9h-46l-12 12-12 12v52c0 29 3 60 6 69l6 16 62-3 61-3 3-69zm176 19c22-30 43-55 48-55h8v110h20V171l-10-6-9-6-48 62-48 61-3-61-3-61h-19v160h25l39-55zm244-22-3-78-39-3c-22-2-50-1-63 2l-23 6v69c0 37 3 71 7 74 3 4 33 7 65 7h59l-3-77zm166 61 16-15v-97l-15-12-16-13-49-5-50-5v163h99l15-16zm166 6v-10h-90v-50h80v-20h-80v-40h90v-30h-110v160h110v-10zm128-67-3-78h-20l-3 78-3 77h32l-3-77zm153 67 19-11V191l-22-15-22-16h-86v160h91l20-10zM690 275v-25h80v50h-80v-25zm320-6v-30l38 3 37 3 3 28 3 27h-81v-31zm300-24v-55h90v110h-90v-55zm420 0v-55h90v110h-90v-55zm180-1v-55l43 3 42 3 3 38 3 38-12 15-11 14h-68v-56zm450 1v-56l43 3 42 3v100l-42 3-43 3v-56z"/></g><g fill="#3fa5e3" transform="matrix(.1 0 0 -.1 0 300)"><path d="M0 1500V0h3000v3000H0V1500zm1557 1329c15-5 40-22 55-36l28-26 10-33 11-33 312-187c172-103 325-196 340-207l29-20 34 17 35 16h94l33-20 33-21 20-45 21-45-7-39-7-39-19-24c-10-14-34-32-53-41l-34-16h-74l-35 17-36 17-27 42-27 43-24-13c-13-7-43-24-66-39-24-15-49-27-56-27-11 0-111 59-497 294-52 32-102 64-110 72l-14 14h12c6 0 27 14 47 31l35 31v18c0 9 9 39 21 65 23 52 19 74-5 26l-16-30-43-26c-51-30-63-30-133-8l-52 16-5 19c-3 10-10 18-16 18h-12l16-30 16-31-6-9-5-9 31-35c17-20 37-36 45-36h14v-12l-1-13-97-59c-53-33-188-115-300-183-111-67-207-123-213-123-18 0-120 61-115 68 2 4-7 8-20 8l-24 2-6-23c-3-12-21-37-39-55l-33-32-45-5-45-5-34 11-35 11-28 30-28 30-4 52-4 53 20 33c12 18 35 41 53 52l33 20h87l34-16 34-16 32 20c18 10 139 84 268 162 129 79 270 164 313 189 42 25 77 49 77 54s7 24 16 43l16 34 42 25 41 25h32c17 0 44-5 60-11zm-389-26-3-18h-30l-3 18-3 17h42l-3-17zm931-124c127-77 231-145 231-150s-6-12-13-15l-14-5-129 79c-71 44-174 106-229 139l-100 60-3 17-3 16h14c8 0 118-63 246-141zm-420-676c247-152 251-154 266-176l15-21v-273l-24-22-23-22-6 15-6 15 15 9 15 8-3 138-3 138-208 129c-115 71-213 129-218 129-6 0-27-11-47-25-39-26-57-31-66-16l-6 9 57 36 58 36 14-6c8-2 85-48 170-101zm-928-55 118-73 1-222v-222l-10-6-10-6 6-11 7-11-11 7-11 7-83-48c-46-26-84-48-86-49s4-14 13-27c9-14 18-40 20-58l5-33-11-38-10-39-41-29-41-30h-98l-27 14c-15 8-38 26-52 41l-25 27v117l20 28 21 28 42 20 42 19v655l38 4c20 2 43 4 51 5s67-31 132-70zm1559-293c0-173-2-315-4-315-3 0-43 23-90 51l-86 52 2 215 3 216 75 48c41 26 81 47 88 47l12 1v-315zm-770 179 32-7 33-31 33-31 11-41 11-40-10-36-11-37-30-25-30-25-41-12-41-11-42 16-42 16-27 29-27 28-6 36c-7 48 1 79 34 118 42 50 88 66 153 53zm-283-150 6-15-11-11-11-11-15 12-15 12 6 15c7 19 32 18 40-2zm531-7 3-17-16-6-16-7-11 11-11 11 7 16 6 16 17-3 18-3 3-18zm-564-454c105-63 206-125 225-136l34-20-5-119-5-118h65l4 30 5 31-14-5-13-5v184l232 143 231 143 66-39c146-86 211-127 211-133 0-3-100-66-222-140-200-119-406-246-417-255-2-2 3-14 12-27s19-40 22-60l7-35-19-43-20-44-45-23-45-22h-68l-39 23-39 22-18 35-19 35v82l20 26 21 26-38 24c-21 13-159 97-308 187-148 90-276 169-284 176l-13 12 31 16c17 9 47 31 67 49 21 17 65 49 98 69l61 37 14-5c8-2 100-57 205-121zm1307 105 39-22 21-43 21-43-7-40-7-39-20-26c-11-14-33-32-48-40l-29-15h-92l-28 15-28 14-8-7-8-7 7 12 6 12-20 14-21 14-5 49-6 49 24 45 24 45 35 17 34 18h77l39-22zm-1796-58 6-10h-10c-6 0-11 5-11 10 0 6 2 10 4 10 3 0 8-4 11-10zm178-559c117-71 223-138 237-149l25-20-11-12-12-12-241 147-241 148v27h16c8 0 111-58 227-129zm1415 113-3-16-233-144-233-144-10 6c-6 3-9 12-7 20l3 14 225 139c124 76 233 140 243 140l18 1-3-16zM630 300v-20h-10c-5 0-10 5-10 10v10h-80V187l50 5 51 5-3-16-3-16-48-3-49-3-14 12-14 11v53c0 30 3 60 6 69l6 16h118v-20zm162-5 11-24-17-26-17-25 11-19c12-24 13-41 2-41-5 0-16 16-25 36l-17 35-23-3-22-3-3-32-3-33h-19v160h110l12-25zm77-12 23-36 21 36 21 37h26l-30-49-30-48v-63h-20v63l-30 48-30 49h13c6 0 23-17 36-37zm239-1 3-33-12-15-11-14h-78v-60h-20v161l58-3 57-3 3-33zm152 29v-10l-27-3-28-3-3-68-3-68-9 6-10 6v129h-50v20h130v-9zm158-65 3-69-13-8c-7-5-33-9-58-9h-46l-12 12-12 12v52c0 29 3 60 6 69l6 16 62-3 61-3 3-69zm176 19c22-30 43-55 48-55h8v110h20V171l-10-6-9-6-48 62-48 61-3-61-3-61h-19v160h25l39-55zm244-22-3-78-39-3c-22-2-50-1-63 2l-23 6v69c0 37 3 71 7 74 3 4 33 7 65 7h59l-3-77zm166 61 16-15v-97l-15-12-16-13-49-5-50-5v163h99l15-16zm166 6v-10h-90v-50h80v-20h-80v-40h90v-30h-110v160h110v-10zm128-67-3-78h-20l-3 78-3 77h32l-3-77zm153 67 19-11V191l-22-15-22-16h-86v160h91l20-10zM690 275v-25h80v50h-80v-25zm320-6v-30l38 3 37 3 3 28 3 27h-81v-31zm300-24v-55h90v110h-90v-55zm420 0v-55h90v110h-90v-55zm180-1v-55l43 3 42 3 3 38 3 38-12 15-11 14h-68v-56zm450 1v-56l43 3 42 3v100l-42 3-43 3v-56z"/></g><g fill="#1c74d4" transform="matrix(.1 0 0 -.1 0 300)"><path d="M0 1500V0h3000v3000H0V1500zm1576 1324 34-16 20-27c10-15 21-38 25-52l6-25 345-207 345-207 26 17 26 17h106l28-20c15-11 36-32 46-46l20-27 4-48 5-48-24-44-24-45-45-24-44-24-39 6-39 5-26 19c-22 16-61 72-75 107l-3 10-19-11c-11-6-44-25-75-42l-56-32-69 42c-134 80-479 291-516 316l-37 24 9 18c5 9 25 25 45 34 19 9 35 20 36 24 0 4 2 15 4 25 4 21-4 22-35 0l-24-17h-103l-27 18-28 18-6-7-6-6 10-17c6-9 27-28 47-41l37-24v-32l-78-46c-42-25-182-110-310-188l-233-142-69 40c-38 23-73 41-78 41s-13-11-16-25c-3-13-19-40-35-58l-29-33 119-74 119-74v-421l8-10c4-6 19-18 34-28l28-17v-28l-114-67-114-67-4-54-5-55-19-27-20-27-45-23-44-23-39 5-39 5-26 18c-13 11-34 32-45 47l-21 27v138l34 35 34 35 29 6 28 7v658h-40l-36 33-36 33-12 49-13 49 8 33c4 19 15 45 24 59l17 26 45 20 45 20 36-7c20-4 48-13 63-21l27-14 194 118c106 65 259 158 340 205l146 88 24 47 23 47 34 22 34 23h89l34-16zm-411-20v-19l-17-3-18-3v19c0 10 3 22 7 26 12 11 28 0 28-20zm797-38c57-35 161-99 233-142l130-80 3-17 3-17h-16c-9 0-119 62-245 138l-229 137-1 16c0 14 8 29 16 29 1 0 49-29 106-64zm-245-783c113-69 214-135 224-146l19-21v-286l-21-21-21-21-11 11-11 11 17 18 17 19v252l-32 24c-18 13-115 75-215 136l-183 113-51-32-52-32-8 14-8 13 9 9c13 13 103 66 113 66 4 0 101-57 214-127zm593-323v-320h-7c-5 0-44 22-88 48l-80 48-3 221-2 220 82 51c46 28 86 51 91 51l7 1v-320zm-730 158c18-13 43-36 54-51l21-29v-58l-1-59-20-28-20-28-44-22c-55-29-82-29-138-2l-44 22-19 41-19 41v92l23 33 22 33 35 18 35 19h82l33-22zm-317-132 6-15-14-11-15-12-15 6c-28 10-16 46 16 46h17l5-14zm527-6v-21l-16-6-15-6-11 11-11 11 6 15 6 16h41v-20zm744-348c16-9 38-29 49-44l20-27 4-48 4-48-23-45-23-45-45-22c-24-13-56-23-70-23h-25l-45 24-44 23-19 34-18 34 4 57 3 58 31 37 30 38 34 12 34 13 35-6c19-3 48-13 64-22zm-1284-121 225-138 3-121 3-122h38l3 121 3 121 225 139c124 76 229 139 233 139 11 0 287-164 287-170 0-3-15-14-32-25-42-24-531-321-580-351l-37-24 21-35 20-36-4-50-5-50-20-27c-11-15-35-37-53-50l-33-22h-78l-33 14c-18 7-42 25-53 40l-21 26-12 49-12 49 21 48c12 26 20 48 19 49-2 1-50 30-108 65-452 272-535 323-538 325-8 6 265 175 283 174 6 0 111-62 235-138zM908 717c119-74 227-139 240-146l22-12v-15c0-8-6-17-14-20l-13-5-79 49c-44 27-144 89-224 137s-151 94-159 101l-14 12 6 16c4 9 9 16 12 16 4 0 104-60 223-133zm1419 107 3-19-235-143-234-144-11 7c-6 4-10 14-8 22l3 14 230 144c127 79 235 142 240 141 6-2 11-11 12-22zM638 298l3-18h-15c-9 0-16 5-16 10v10h-80V190h78l5 13 5 12 12-12 13-12-13-16-12-15h-94l-12 12-12 12v61c0 34 3 65 7 69l7 7 60-3 61-3 3-17zm150 10c16-16 15-53-2-70l-14-14 14-32 13-32h-25l-17 35-17 35h-39l-3-32-3-31-12-5-13-4v162h106l12-12zm77-18c9-16 20-30 25-30s16 14 25 30l16 30h31l-23-37c-12-21-26-42-31-47-4-6-8-25-8-43v-33h-20v66l-13 19c-8 11-22 32-32 48l-17 27h31l16-30zm243-14 3-39-13-8c-7-5-30-9-50-9h-38v-60h-20v161l58-3 57-3 3-39zm152 34v-10h-49l-3-67-3-66-12-5-13-4v142h-50v20h130v-10zm155-70v-75l-53-3-54-3-14 12-14 11v63c0 34 3 65 7 69l7 7 61-3 60-3v-75zm183 23 42-57v114h30V160h-12c-7 0-31 25-53 55s-43 54-47 55h-8V160h-20v160h26l42-57zm250-11 3-64-12-14-12-15-56 3-56 3-3 78-3 78 68-3 68-3 3-63zm160 56 12-12V193l-19-17-19-17-48 3-49 3-3 78-3 77h117l12-12zm162 2v-10h-91l3-22 3-23 38-3 37-3v-19h-80v-40h90v-30h-110v160h110v-10zm130-70v-80h-30v160h30v-80zm158 68 12-12V191l-16-15-15-16h-99v160h106l12-12zM700 275v-25h70v50h-70v-25zm310 1v-26h81l-3 23-3 22-37 3-38 3v-25zm300-30v-56h91l-3 53-3 52-42 3-43 3v-55zm420-1v-55h90v110h-90v-55zm180 0v-55h78l6 16c3 9 6 28 6 43v27l-12 12-12 12h-66v-55zm450-1v-55l43 3 42 3 3 38 3 38-12 15-11 14h-68v-56z"/></g><g fill="#151f44" transform="matrix(.1 0 0 -.1 0 300)"><path d="M0 1500V0h3000v3000H0V1500zm1588 1320 32-20 20-32c11-18 20-40 20-48l1-15 177-105c97-58 252-151 344-207l168-101 37 19 37 19h60l41-20 41-20 22-39 22-39v-40c0-74-39-137-101-162l-29-12v-646l29-7 28-6 25-27c14-15 31-37 37-49l11-22v-93l-22-40-23-40-37-19-37-19h-76l-36 19-36 20-9-9c-5-4-115-72-244-150s-278-169-331-202l-96-59-12-39-11-39-37-30-37-30-41-7-41-6-37 16c-20 8-48 27-62 42l-25 26-6 35-6 34-345 205-344 206-34-16-33-16h-87l-38 25-37 26-16 32-17 31-1 51v51l20 34 19 34 42 20 42 21 1 322v321l-37 19-38 18-21 32-21 32-7 41-6 41 10 39 10 38 34 30 35 30 31 7 32 7 36-7c20-3 47-13 58-20l22-14 43 28c24 15 180 110 347 210l302 183v18c0 23 36 68 74 91l31 19h100l33-20zm-414-5 5-14-16-16-16-16-15 15-15 14 6 16 6 16h39l6-15zm721-5c17-11 121-75 233-142l202-123v-17c0-9-4-19-9-23l-10-5-235 142c-130 79-238 149-241 156-13 35 17 41 60 12zM917 714c114-70 218-133 231-141l22-13v-16c0-8-6-17-14-20l-15-6-153 95c-84 51-190 116-235 143l-82 49-1 16c0 20 11 31 26 25 7-3 106-62 221-132zm1413 121 13-16-9-8c-21-21-467-291-479-291-7 0-15 7-19 15l-5 15 12 10c17 15 461 289 468 290 4 0 12-7 19-15zM638 298l3-18h-15c-9 0-16 5-16 10v10h-80V190h80v10c0 6 7 10 15 10h15v-12c0-7-4-19-9-26l-8-13-59 3-59 3-3 64c-2 35-1 70 2 78l6 14 62-3 63-3 3-17zm157 1 7-20-6-25c-4-13-11-24-16-24h-9l15-35 14-35h-31l-10 30-11 30h-48v-60h-30v160h119l6-21zm72-9c9-16 20-30 23-30s14 14 23 30l18 30h30l-12-22c-7-13-20-35-30-50l-19-26v-62h-20v62l-19 26c-10 15-23 37-30 50l-12 22h30l18-30zm238-20v-45l-47-3-48-3v-59h-20v161l58-3 57-3v-45zm155 40v-10h-50V160h-30v140h-50v20h130v-10zm158-67-3-78h-130l-3 64c-2 35-1 70 2 77l5 14h132l-3-77zm177 25 40-52 3 52 3 52h29V160h-12c-7 0-33 26-58 58l-45 57-3-57-3-58h-19v160h26l39-52zm253-16 3-64-12-14-12-15-56 3-56 3-3 78-3 78 68-3 68-3 3-63zm160 56 12-12V191l-16-15-15-16h-109v160h116l12-12zm162 2v-10h-90v-40h80v-30h-80v-40h90v-31l-57 3-58 3-3 78-3 77h121v-10zm130-70v-80h-30v160h30v-80zm166 55 17-25-6-42-6-42-18-14-18-13-50 3-50 3-3 78-3 77h121l16-25zM1411 2524c13-14 36-32 50-39l26-14 2-91 1-90-52-34c-44-28-316-193-423-257l-30-18-135 79-135 79-13-32c-8-18-25-44-38-58l-25-26 103-63c57-35 111-70 121-78l17-15v-426l30-18 30-17v-41l-115-65-114-65-1-28v-28l23 12c12 6 77 45 145 86l123 75 18-5c10-2 121-67 245-143l226-138V830h29l3 122 3 122 223 138c123 76 228 138 234 138s78-38 159-85 149-85 153-85c3 0 6 15 6 33v32l21 34c11 18 19 34 17 35s-49 29-105 62l-103 59v444l78 47c42 26 94 58 115 71l38 24-25 32c-13 18-28 44-31 60-4 15-9 27-12 27-5 0-154-85-212-122-25-15-52-28-60-28-12 0-333 188-468 274l-33 21v193l29 12c31 13 68 47 59 55-3 3-18-1-34-10l-29-15h-76l-36 15c-48 20-50 19-22-11zm322-549 208-128 15-28 14-28v-248l-21-27c-23-29-44-34-53-11l-6 16 15 5 15 6v277l-210 131-210 130-38-24c-20-13-73-44-117-70s-120-73-170-104l-89-57-6-30c-3-16-4-80-2-142l4-112 137-82c75-46 166-102 204-126 37-24 71-43 76-43s61 32 125 70c63 39 121 70 128 70 8 0 19 5 25 11s16 10 23 7l11-3-43-29c-100-68-259-166-267-166-5 0-76 41-157 91-82 51-175 107-206 125-31 19-66 46-77 60l-21 27v268l23 22c12 13 83 60 157 106s164 104 200 128l65 44 20-4c11-2 114-61 228-132zm-136-163 31-22 17-36 17-37-4-52-4-52-22-30-22-31-34-16-34-16h-87l-33 20-32 20-20 32-20 33v110l20 33c11 18 34 41 52 53l33 20 56-3 55-4 31-22zm-337-117 12-15-6-15-5-15h-42l-5 15-6 15 12 15c7 8 16 15 20 15s13-7 20-15zm540-13c0-4-4-13-9-20l-8-14-19 4-19 3-3 19-4 19 13 8 13 8 18-10c10-5 18-13 18-17zM700 276v-26h71l-3 23-3 22-32 3-33 3v-25zm317 18c-4-4-7-16-7-26v-18h81l-3 23-3 22-30 3c-17 2-34 0-38-4zm293-49v-55h80v110h-80v-55zm427 48c-4-3-7-28-7-55v-48h90v110h-38c-21 0-42-3-45-7zm173-47v-56h80l6 26 7 27-9 26-9 26-38 3-37 3v-55zm450-2v-55l43 3 42 3 3 38 3 38-12 15-11 14h-68v-56z"/></g></g></svg>